<?xml version="1.0" encoding="UTF-8"?>
<svg xmlns="http://www.w3.org/2000/svg" xmlns:xlink="http://www.w3.org/1999/xlink" width="98px" height="45px" viewBox="0 0 50 23" version="1.1">
<g id="surface1">
<path style=" stroke:none;fill-rule:nonzero;fill:rgb(20%,20%,20%);fill-opacity:1;" d="M 3.152344 19.160156 C 3.300781 19.199219 3.449219 19.230469 3.597656 19.25 C 3.640625 19.25 3.691406 19.324219 3.691406 19.417969 C 3.699219 19.589844 3.710938 19.808594 3.722656 19.988281 C 3.730469 20.121094 3.6875 20.226562 3.617188 20.226562 C 3.585938 20.226562 3.53125 20.152344 3.5 20.058594 C 3.457031 19.890625 3.367188 19.738281 3.242188 19.617188 C 2.988281 19.394531 2.664062 19.265625 2.324219 19.257812 C 1.339844 19.257812 0.875 20.039062 0.875 20.980469 C 0.867188 21.34375 0.9375 21.703125 1.085938 22.03125 C 1.328125 22.582031 1.871094 22.945312 2.476562 22.953125 C 2.6875 22.953125 2.890625 22.90625 3.078125 22.808594 C 3.308594 22.675781 3.496094 22.480469 3.617188 22.246094 C 3.691406 22.109375 3.734375 22.054688 3.789062 22.054688 C 3.855469 22.054688 3.855469 22.214844 3.839844 22.285156 C 3.792969 22.46875 3.730469 22.652344 3.644531 22.824219 C 3.59375 22.914062 3.515625 22.980469 3.425781 23.023438 C 3.074219 23.144531 2.710938 23.203125 2.339844 23.203125 C 1.664062 23.226562 1.007812 22.972656 0.519531 22.503906 C 0.179688 22.117188 -0.00390625 21.621094 0.00390625 21.105469 C 0.00390625 20.535156 0.253906 19.992188 0.6875 19.617188 C 1.164062 19.246094 1.753906 19.050781 2.359375 19.0625 C 2.628906 19.0625 2.894531 19.097656 3.15625 19.160156 Z M 3.152344 19.160156 "/>
<path style=" stroke:none;fill-rule:nonzero;fill:rgb(20%,20%,20%);fill-opacity:1;" d="M 6.414062 19.195312 C 6.472656 19.34375 6.582031 19.660156 6.664062 19.890625 C 7.007812 20.851562 7.425781 21.972656 7.546875 22.285156 C 7.753906 22.785156 7.890625 22.847656 8.097656 22.910156 C 8.203125 22.941406 8.257812 22.980469 8.257812 23.023438 C 8.257812 23.066406 8.199219 23.113281 8.054688 23.113281 C 7.914062 23.113281 7.4375 23.089844 7.242188 23.089844 C 7.050781 23.089844 6.796875 23.101562 6.640625 23.101562 C 6.519531 23.101562 6.445312 23.066406 6.445312 23.007812 C 6.445312 22.980469 6.488281 22.929688 6.605469 22.902344 C 6.863281 22.84375 6.863281 22.742188 6.851562 22.644531 C 6.785156 22.335938 6.6875 22.03125 6.566406 21.738281 C 6.535156 21.683594 6.480469 21.648438 6.417969 21.644531 C 5.761719 21.640625 5.464844 21.660156 5.378906 21.664062 C 5.359375 21.664062 5.324219 21.707031 5.3125 21.726562 C 5.175781 22.011719 5.085938 22.3125 5.042969 22.625 C 5.042969 22.75 5.105469 22.835938 5.335938 22.898438 C 5.460938 22.929688 5.515625 22.964844 5.515625 23.023438 C 5.515625 23.078125 5.429688 23.105469 5.328125 23.105469 C 5.230469 23.105469 5.0625 23.089844 4.835938 23.089844 C 4.605469 23.089844 4.320312 23.117188 4.222656 23.117188 C 4.082031 23.117188 4.042969 23.078125 4.042969 23.042969 C 4.042969 23.003906 4.066406 22.957031 4.195312 22.917969 C 4.511719 22.832031 4.578125 22.730469 4.757812 22.367188 C 4.90625 22.066406 5.574219 20.296875 5.835938 19.6875 C 5.847656 19.652344 5.859375 19.613281 5.867188 19.574219 C 5.867188 19.558594 5.859375 19.539062 5.878906 19.523438 C 5.992188 19.402344 6.101562 19.273438 6.199219 19.136719 C 6.222656 19.097656 6.261719 19.066406 6.3125 19.058594 C 6.339844 19.058594 6.367188 19.070312 6.414062 19.195312 Z M 6.429688 21.296875 C 6.335938 21.007812 6.0625 20.253906 5.976562 20.050781 C 5.964844 20.007812 5.925781 20.019531 5.90625 20.070312 C 5.796875 20.367188 5.5 21.148438 5.460938 21.296875 C 5.460938 21.308594 5.460938 21.324219 5.46875 21.335938 C 5.480469 21.347656 5.492188 21.355469 5.503906 21.359375 C 5.746094 21.351562 6.207031 21.34375 6.402344 21.34375 C 6.421875 21.335938 6.429688 21.316406 6.429688 21.292969 Z M 6.429688 21.296875 "/>
<path style=" stroke:none;fill-rule:nonzero;fill:rgb(20%,20%,20%);fill-opacity:1;" d="M 11.210938 20.929688 C 11.1875 20.949219 11.058594 21.015625 10.972656 21.058594 C 10.941406 21.070312 10.945312 21.121094 10.957031 21.144531 C 11.226562 21.660156 11.539062 22.152344 11.894531 22.609375 C 12.027344 22.773438 12.21875 22.886719 12.425781 22.921875 C 12.488281 22.933594 12.535156 22.984375 12.535156 23.007812 C 12.535156 23.03125 12.480469 23.085938 12.4375 23.101562 C 12.300781 23.132812 12.164062 23.152344 12.023438 23.152344 C 11.664062 23.1875 11.308594 23.035156 11.089844 22.746094 C 10.917969 22.511719 10.601562 22.003906 10.339844 21.558594 C 10.285156 21.460938 10.21875 21.375 10.140625 21.300781 C 10.050781 21.246094 9.949219 21.21875 9.84375 21.21875 C 9.8125 21.226562 9.785156 21.25 9.777344 21.28125 C 9.765625 21.40625 9.777344 22.226562 9.792969 22.515625 C 9.8125 22.78125 9.855469 22.84375 10.136719 22.917969 C 10.242188 22.949219 10.285156 22.992188 10.285156 23.035156 C 10.285156 23.105469 10.167969 23.128906 10.09375 23.128906 C 9.878906 23.128906 9.605469 23.089844 9.300781 23.089844 C 9.085938 23.089844 8.777344 23.117188 8.707031 23.117188 C 8.554688 23.117188 8.507812 23.074219 8.507812 23.015625 C 8.507812 22.980469 8.578125 22.941406 8.660156 22.917969 C 8.945312 22.832031 9.011719 22.753906 9.03125 22.558594 C 9.066406 22.082031 9.066406 21.5625 9.066406 21.035156 C 9.066406 20.371094 9.054688 19.84375 9.035156 19.675781 C 9.023438 19.527344 8.96875 19.433594 8.679688 19.367188 C 8.59375 19.339844 8.527344 19.296875 8.527344 19.25 C 8.527344 19.199219 8.601562 19.160156 8.707031 19.160156 L 9.15625 19.160156 C 9.386719 19.160156 9.898438 19.132812 10.234375 19.132812 C 10.613281 19.105469 10.992188 19.199219 11.3125 19.402344 C 11.523438 19.589844 11.644531 19.859375 11.644531 20.140625 C 11.640625 20.460938 11.480469 20.753906 11.210938 20.929688 Z M 10.609375 19.550781 C 10.480469 19.414062 10.296875 19.332031 10.109375 19.332031 C 10.027344 19.335938 9.949219 19.351562 9.875 19.375 C 9.835938 19.410156 9.8125 19.457031 9.800781 19.503906 C 9.78125 19.714844 9.753906 20.800781 9.78125 20.960938 C 9.789062 21 9.820312 21.03125 9.859375 21.035156 C 10.089844 21.039062 10.320312 20.992188 10.527344 20.902344 C 10.75 20.738281 10.878906 20.480469 10.871094 20.207031 C 10.871094 19.964844 10.777344 19.730469 10.613281 19.554688 Z M 10.609375 19.550781 "/>
<path style=" stroke:none;fill-rule:nonzero;fill:rgb(20%,20%,20%);fill-opacity:1;" d="M 15.175781 19.164062 C 15.355469 19.164062 15.539062 19.148438 15.71875 19.128906 C 15.746094 19.121094 15.789062 19.164062 15.792969 19.207031 C 15.800781 19.320312 15.800781 19.746094 15.800781 19.871094 C 15.800781 19.960938 15.757812 20.046875 15.699219 20.046875 C 15.640625 20.046875 15.59375 19.953125 15.582031 19.890625 C 15.5 19.546875 15.324219 19.449219 15.183594 19.425781 C 14.898438 19.390625 14.613281 19.378906 14.324219 19.390625 C 14.300781 19.390625 14.25 19.414062 14.246094 19.5625 C 14.238281 19.707031 14.214844 20.578125 14.21875 20.917969 C 14.222656 20.953125 14.25 20.976562 14.28125 20.980469 L 14.777344 20.980469 C 15.21875 20.980469 15.207031 20.957031 15.320312 20.683594 C 15.359375 20.589844 15.402344 20.523438 15.457031 20.523438 C 15.515625 20.523438 15.527344 20.628906 15.519531 20.695312 C 15.507812 20.867188 15.496094 20.980469 15.496094 21.125 C 15.496094 21.292969 15.507812 21.390625 15.519531 21.546875 C 15.527344 21.660156 15.488281 21.734375 15.4375 21.734375 C 15.390625 21.734375 15.339844 21.660156 15.320312 21.597656 C 15.242188 21.324219 15.160156 21.28125 14.917969 21.261719 C 14.722656 21.242188 14.488281 21.242188 14.300781 21.242188 C 14.273438 21.242188 14.21875 21.304688 14.21875 21.316406 C 14.199219 21.605469 14.195312 21.890625 14.207031 22.179688 C 14.207031 22.347656 14.214844 22.519531 14.230469 22.6875 C 14.253906 22.753906 14.300781 22.808594 14.367188 22.835938 C 14.535156 22.863281 14.703125 22.875 14.871094 22.871094 C 15.0625 22.882812 15.253906 22.863281 15.4375 22.816406 C 15.652344 22.726562 15.824219 22.5625 15.929688 22.355469 C 16.015625 22.195312 16.070312 22.140625 16.121094 22.140625 C 16.171875 22.140625 16.175781 22.269531 16.171875 22.320312 C 16.109375 22.5625 16.03125 22.804688 15.9375 23.039062 C 15.898438 23.082031 15.84375 23.113281 15.785156 23.117188 C 15.71875 23.117188 14.1875 23.089844 13.722656 23.089844 C 13.308594 23.089844 13.242188 23.117188 13.019531 23.117188 C 12.902344 23.117188 12.808594 23.101562 12.808594 23.039062 C 12.808594 22.976562 12.886719 22.9375 12.992188 22.914062 C 13.308594 22.839844 13.390625 22.777344 13.414062 22.441406 C 13.433594 22.183594 13.464844 21.710938 13.464844 20.941406 C 13.464844 20.210938 13.472656 19.925781 13.460938 19.746094 C 13.445312 19.523438 13.398438 19.402344 13.128906 19.347656 C 13 19.324219 12.933594 19.296875 12.933594 19.238281 C 12.933594 19.179688 13.039062 19.144531 13.125 19.144531 C 13.414062 19.144531 13.921875 19.164062 14.242188 19.164062 Z M 15.175781 19.164062 "/>
<path style=" stroke:none;fill-rule:nonzero;fill:rgb(20%,20%,20%);fill-opacity:1;" d="M 18.808594 19.164062 C 18.988281 19.164062 19.171875 19.148438 19.351562 19.128906 C 19.378906 19.121094 19.421875 19.164062 19.425781 19.207031 C 19.433594 19.320312 19.433594 19.746094 19.433594 19.871094 C 19.433594 19.960938 19.390625 20.046875 19.335938 20.046875 C 19.277344 20.046875 19.230469 19.953125 19.21875 19.890625 C 19.136719 19.546875 18.960938 19.449219 18.820312 19.425781 C 18.535156 19.390625 18.246094 19.378906 17.960938 19.390625 C 17.9375 19.390625 17.886719 19.414062 17.878906 19.5625 C 17.875 19.707031 17.847656 20.578125 17.855469 20.917969 C 17.859375 20.953125 17.886719 20.976562 17.917969 20.980469 L 18.414062 20.980469 C 18.851562 20.980469 18.84375 20.957031 18.957031 20.683594 C 18.996094 20.589844 19.039062 20.523438 19.09375 20.523438 C 19.148438 20.523438 19.160156 20.628906 19.15625 20.695312 C 19.144531 20.867188 19.128906 20.980469 19.128906 21.125 C 19.128906 21.292969 19.144531 21.390625 19.15625 21.546875 C 19.160156 21.660156 19.125 21.734375 19.074219 21.734375 C 19.023438 21.734375 18.976562 21.660156 18.957031 21.597656 C 18.878906 21.324219 18.796875 21.28125 18.554688 21.261719 C 18.355469 21.242188 18.125 21.242188 17.9375 21.242188 C 17.910156 21.242188 17.855469 21.304688 17.855469 21.316406 C 17.835938 21.605469 17.832031 21.890625 17.84375 22.179688 C 17.839844 22.347656 17.851562 22.519531 17.867188 22.6875 C 17.886719 22.742188 17.941406 22.824219 18.003906 22.835938 C 18.171875 22.863281 18.335938 22.875 18.503906 22.871094 C 18.695312 22.882812 18.890625 22.863281 19.074219 22.816406 C 19.289062 22.726562 19.460938 22.5625 19.5625 22.355469 C 19.652344 22.195312 19.707031 22.140625 19.757812 22.140625 C 19.816406 22.140625 19.8125 22.269531 19.808594 22.320312 C 19.746094 22.5625 19.667969 22.804688 19.570312 23.039062 C 19.554688 23.082031 19.453125 23.117188 19.421875 23.117188 C 19.355469 23.117188 17.824219 23.089844 17.359375 23.089844 C 16.945312 23.089844 16.878906 23.117188 16.65625 23.117188 C 16.535156 23.117188 16.445312 23.101562 16.445312 23.039062 C 16.445312 22.976562 16.523438 22.9375 16.628906 22.914062 C 16.945312 22.839844 17.027344 22.777344 17.050781 22.441406 C 17.070312 22.183594 17.101562 21.710938 17.101562 20.941406 C 17.101562 20.210938 17.109375 19.925781 17.097656 19.746094 C 17.082031 19.523438 17.035156 19.402344 16.765625 19.347656 C 16.636719 19.324219 16.570312 19.296875 16.570312 19.238281 C 16.570312 19.179688 16.679688 19.148438 16.765625 19.148438 C 17.054688 19.148438 17.5625 19.167969 17.882812 19.167969 Z M 18.808594 19.164062 "/>
<path style=" stroke:none;fill-rule:nonzero;fill:rgb(20%,20%,20%);fill-opacity:1;" d="M 22.882812 20.929688 C 22.855469 20.949219 22.726562 21.015625 22.640625 21.058594 C 22.609375 21.070312 22.617188 21.121094 22.628906 21.144531 C 22.894531 21.660156 23.207031 22.152344 23.5625 22.609375 C 23.695312 22.773438 23.886719 22.886719 24.09375 22.921875 C 24.15625 22.933594 24.207031 22.984375 24.207031 23.007812 C 24.207031 23.03125 24.148438 23.085938 24.105469 23.101562 C 23.972656 23.132812 23.832031 23.152344 23.691406 23.152344 C 23.332031 23.191406 22.976562 23.035156 22.757812 22.746094 C 22.585938 22.511719 22.269531 22.003906 22.007812 21.558594 C 21.957031 21.460938 21.886719 21.375 21.808594 21.300781 C 21.71875 21.246094 21.617188 21.21875 21.511719 21.21875 C 21.480469 21.222656 21.453125 21.25 21.445312 21.28125 C 21.433594 21.40625 21.445312 22.226562 21.464844 22.515625 C 21.480469 22.78125 21.523438 22.84375 21.808594 22.917969 C 21.914062 22.949219 21.957031 22.992188 21.957031 23.035156 C 21.957031 23.105469 21.839844 23.128906 21.765625 23.128906 C 21.546875 23.128906 21.273438 23.089844 20.972656 23.089844 C 20.753906 23.089844 20.445312 23.117188 20.378906 23.117188 C 20.222656 23.117188 20.179688 23.074219 20.179688 23.015625 C 20.179688 22.980469 20.246094 22.941406 20.328125 22.917969 C 20.613281 22.832031 20.679688 22.753906 20.699219 22.558594 C 20.738281 22.082031 20.738281 21.5625 20.738281 21.035156 C 20.738281 20.371094 20.722656 19.84375 20.707031 19.675781 C 20.691406 19.527344 20.636719 19.433594 20.347656 19.367188 C 20.261719 19.339844 20.195312 19.296875 20.195312 19.25 C 20.195312 19.199219 20.269531 19.160156 20.375 19.160156 L 20.828125 19.160156 C 21.054688 19.160156 21.570312 19.132812 21.902344 19.132812 C 22.28125 19.105469 22.660156 19.199219 22.980469 19.402344 C 23.191406 19.589844 23.3125 19.859375 23.316406 20.140625 C 23.308594 20.460938 23.148438 20.753906 22.882812 20.929688 Z M 22.277344 19.550781 C 22.148438 19.414062 21.96875 19.332031 21.777344 19.332031 C 21.699219 19.335938 21.617188 19.351562 21.542969 19.375 C 21.507812 19.410156 21.480469 19.457031 21.46875 19.503906 C 21.449219 19.714844 21.425781 20.800781 21.449219 20.960938 C 21.457031 21 21.492188 21.03125 21.53125 21.035156 C 21.757812 21.039062 21.988281 20.992188 22.199219 20.902344 C 22.417969 20.738281 22.546875 20.480469 22.542969 20.207031 C 22.539062 19.964844 22.445312 19.730469 22.28125 19.554688 Z M 22.277344 19.550781 "/>
<path style=" stroke:none;fill-rule:nonzero;fill:rgb(20%,20%,20%);fill-opacity:1;" d="M 26.546875 19.164062 C 26.570312 19.171875 26.621094 19.257812 26.625 19.289062 C 26.625 19.371094 26.6875 19.847656 26.6875 19.871094 C 26.6875 19.964844 26.667969 20.023438 26.632812 20.023438 C 26.550781 20.011719 26.480469 19.953125 26.453125 19.875 C 26.402344 19.710938 26.3125 19.558594 26.1875 19.4375 C 26.050781 19.320312 25.871094 19.257812 25.691406 19.265625 C 25.339844 19.269531 25.058594 19.558594 25.058594 19.910156 C 25.058594 20.273438 25.332031 20.472656 25.890625 20.828125 C 26.652344 21.292969 26.800781 21.691406 26.800781 22.070312 C 26.785156 22.449219 26.582031 22.792969 26.253906 22.984375 C 25.988281 23.128906 25.691406 23.203125 25.386719 23.207031 C 25.082031 23.210938 24.78125 23.15625 24.5 23.042969 C 24.433594 22.996094 24.375 22.933594 24.335938 22.863281 C 24.28125 22.644531 24.246094 22.421875 24.230469 22.199219 C 24.230469 22.15625 24.300781 22.070312 24.335938 22.070312 C 24.386719 22.070312 24.480469 22.21875 24.574219 22.414062 C 24.730469 22.75 25.0625 22.96875 25.433594 22.984375 C 25.78125 22.984375 26.066406 22.710938 26.078125 22.363281 C 26.078125 22.105469 25.945312 21.851562 25.378906 21.480469 C 24.746094 21.066406 24.40625 20.726562 24.40625 20.171875 C 24.40625 19.859375 24.542969 19.5625 24.78125 19.359375 C 25.0625 19.144531 25.414062 19.039062 25.765625 19.0625 C 26.027344 19.074219 26.289062 19.109375 26.546875 19.164062 Z M 26.546875 19.164062 "/>
<path style=" stroke:none;fill-rule:nonzero;fill:rgb(20%,20%,20%);fill-opacity:1;" d="M 27.171875 19.132812 C 27.320312 19.132812 27.691406 19.171875 27.976562 19.171875 C 28.148438 19.171875 28.332031 19.15625 28.578125 19.15625 C 28.675781 19.15625 28.730469 19.1875 28.730469 19.226562 C 28.714844 19.296875 28.660156 19.347656 28.585938 19.355469 C 28.378906 19.398438 28.367188 19.5 28.445312 19.660156 C 28.519531 19.796875 28.890625 20.441406 29.160156 20.894531 C 29.171875 20.914062 29.222656 20.898438 29.242188 20.875 C 29.34375 20.722656 29.773438 20.03125 29.929688 19.726562 C 30.03125 19.535156 30.027344 19.414062 29.734375 19.351562 C 29.648438 19.332031 29.570312 19.277344 29.570312 19.214844 C 29.570312 19.171875 29.65625 19.152344 29.703125 19.152344 C 29.867188 19.152344 29.984375 19.164062 30.125 19.164062 C 30.296875 19.164062 30.765625 19.132812 30.863281 19.132812 C 30.960938 19.132812 31.003906 19.144531 31.003906 19.203125 C 31.003906 19.257812 30.9375 19.304688 30.832031 19.332031 C 30.574219 19.410156 30.351562 19.578125 30.207031 19.808594 C 29.949219 20.132812 29.574219 20.722656 29.382812 21.015625 C 29.332031 21.117188 29.300781 21.234375 29.296875 21.351562 C 29.296875 21.695312 29.316406 22.371094 29.34375 22.578125 C 29.359375 22.738281 29.402344 22.820312 29.738281 22.90625 C 29.855469 22.9375 29.898438 22.980469 29.898438 23.023438 C 29.898438 23.066406 29.832031 23.109375 29.707031 23.109375 C 29.621094 23.109375 29.167969 23.078125 29.023438 23.078125 C 28.617188 23.078125 28.207031 23.121094 28.128906 23.121094 C 28.046875 23.121094 27.96875 23.097656 27.96875 23.046875 C 27.96875 22.996094 28.019531 22.949219 28.144531 22.917969 C 28.472656 22.824219 28.542969 22.726562 28.550781 22.632812 C 28.566406 22.347656 28.554688 21.664062 28.554688 21.433594 C 28.546875 21.332031 28.527344 21.230469 28.5 21.132812 C 28.394531 20.921875 28.027344 20.332031 27.761719 19.898438 C 27.496094 19.460938 27.371094 19.375 27.167969 19.328125 C 27.058594 19.300781 26.988281 19.257812 26.988281 19.203125 C 26.988281 19.148438 27.066406 19.132812 27.171875 19.132812 Z M 27.171875 19.132812 "/>
<path style=" stroke:none;fill-rule:nonzero;fill:rgb(20%,20%,20%);fill-opacity:1;" d="M 33.347656 19.164062 C 33.375 19.171875 33.421875 19.257812 33.429688 19.289062 C 33.429688 19.367188 33.492188 19.847656 33.492188 19.871094 C 33.492188 19.964844 33.472656 20.023438 33.433594 20.023438 C 33.351562 20.011719 33.285156 19.953125 33.253906 19.875 C 33.207031 19.707031 33.113281 19.558594 32.988281 19.433594 C 32.851562 19.316406 32.675781 19.257812 32.492188 19.261719 C 32.144531 19.269531 31.863281 19.558594 31.863281 19.90625 C 31.863281 20.273438 32.136719 20.472656 32.691406 20.828125 C 33.453125 21.292969 33.601562 21.6875 33.601562 22.066406 C 33.589844 22.445312 33.382812 22.789062 33.058594 22.980469 C 32.792969 23.125 32.492188 23.203125 32.191406 23.203125 C 31.886719 23.207031 31.582031 23.152344 31.300781 23.042969 C 31.230469 22.996094 31.175781 22.933594 31.136719 22.863281 C 31.082031 22.644531 31.046875 22.421875 31.03125 22.199219 C 31.03125 22.15625 31.101562 22.066406 31.132812 22.066406 C 31.183594 22.066406 31.28125 22.21875 31.371094 22.414062 C 31.53125 22.75 31.863281 22.96875 32.234375 22.984375 C 32.578125 22.984375 32.863281 22.710938 32.875 22.363281 C 32.875 22.105469 32.746094 21.851562 32.175781 21.484375 C 31.546875 21.066406 31.207031 20.726562 31.207031 20.175781 C 31.207031 19.859375 31.347656 19.5625 31.585938 19.359375 C 31.863281 19.144531 32.214844 19.039062 32.570312 19.0625 C 32.832031 19.074219 33.09375 19.109375 33.347656 19.164062 Z M 33.347656 19.164062 "/>
<path style=" stroke:none;fill-rule:nonzero;fill:rgb(20%,20%,20%);fill-opacity:1;" d="M 37.335938 19.152344 C 37.5 19.15625 37.664062 19.125 37.8125 19.054688 C 37.863281 19.023438 37.886719 19.003906 37.914062 19.003906 C 37.941406 19.003906 37.992188 19.070312 37.96875 19.15625 C 37.90625 19.390625 37.863281 19.632812 37.839844 19.875 C 37.839844 19.929688 37.796875 20.035156 37.722656 20.035156 C 37.679688 20.035156 37.640625 20.003906 37.617188 19.84375 C 37.554688 19.488281 37.472656 19.433594 37.167969 19.421875 C 37.023438 19.421875 36.566406 19.429688 36.414062 19.453125 C 36.382812 19.464844 36.355469 19.492188 36.351562 19.527344 C 36.351562 19.8125 36.347656 20.285156 36.347656 20.820312 C 36.347656 21.535156 36.351562 22.191406 36.378906 22.5 C 36.394531 22.699219 36.445312 22.824219 36.859375 22.910156 C 36.945312 22.929688 37.011719 22.996094 37.011719 23.035156 C 37.011719 23.089844 36.90625 23.113281 36.839844 23.113281 C 36.789062 23.113281 36.085938 23.089844 35.921875 23.089844 C 35.730469 23.089844 35.253906 23.125 35.148438 23.125 C 35.042969 23.125 34.957031 23.101562 34.957031 23.050781 C 34.957031 23 35.03125 22.941406 35.09375 22.921875 C 35.496094 22.824219 35.523438 22.742188 35.542969 22.308594 C 35.570312 21.941406 35.601562 20.707031 35.601562 20.242188 C 35.601562 19.886719 35.59375 19.679688 35.59375 19.515625 C 35.59375 19.472656 35.566406 19.4375 35.527344 19.429688 C 35.410156 19.410156 34.964844 19.402344 34.828125 19.402344 C 34.699219 19.410156 34.578125 19.460938 34.484375 19.546875 C 34.402344 19.648438 34.332031 19.757812 34.273438 19.875 C 34.199219 20 34.160156 20.035156 34.136719 20.035156 C 34.074219 20.035156 34.042969 19.960938 34.042969 19.898438 C 34.042969 19.78125 34.15625 19.382812 34.160156 19.0625 C 34.160156 19.039062 34.21875 18.9375 34.261719 18.9375 C 34.304688 18.9375 34.328125 18.988281 34.367188 19.039062 C 34.441406 19.09375 34.527344 19.128906 34.621094 19.136719 C 34.757812 19.148438 35.574219 19.171875 36 19.171875 C 36.34375 19.171875 37.128906 19.164062 37.335938 19.152344 Z M 37.335938 19.152344 "/>
<path style=" stroke:none;fill-rule:nonzero;fill:rgb(20%,20%,20%);fill-opacity:1;" d="M 40.554688 19.164062 C 40.734375 19.164062 40.917969 19.148438 41.097656 19.128906 C 41.125 19.121094 41.167969 19.164062 41.171875 19.207031 C 41.179688 19.320312 41.179688 19.746094 41.179688 19.871094 C 41.179688 19.960938 41.136719 20.046875 41.082031 20.046875 C 41.023438 20.046875 40.976562 19.953125 40.960938 19.890625 C 40.882812 19.546875 40.707031 19.449219 40.566406 19.425781 C 40.28125 19.390625 39.992188 19.378906 39.707031 19.390625 C 39.679688 19.390625 39.632812 19.414062 39.625 19.5625 C 39.621094 19.707031 39.59375 20.578125 39.601562 20.917969 C 39.605469 20.953125 39.632812 20.976562 39.664062 20.980469 L 40.160156 20.980469 C 40.597656 20.980469 40.589844 20.957031 40.703125 20.683594 C 40.742188 20.589844 40.785156 20.523438 40.839844 20.523438 C 40.894531 20.523438 40.90625 20.628906 40.902344 20.695312 C 40.890625 20.867188 40.875 20.980469 40.875 21.125 C 40.875 21.292969 40.890625 21.390625 40.902344 21.546875 C 40.90625 21.660156 40.871094 21.734375 40.820312 21.734375 C 40.769531 21.734375 40.722656 21.660156 40.703125 21.597656 C 40.621094 21.324219 40.542969 21.28125 40.300781 21.261719 C 40.101562 21.242188 39.871094 21.242188 39.679688 21.242188 C 39.65625 21.242188 39.601562 21.304688 39.601562 21.316406 C 39.582031 21.605469 39.578125 21.890625 39.589844 22.179688 C 39.585938 22.347656 39.59375 22.519531 39.613281 22.6875 C 39.632812 22.742188 39.6875 22.824219 39.75 22.835938 C 39.914062 22.863281 40.082031 22.875 40.25 22.871094 C 40.441406 22.882812 40.632812 22.863281 40.820312 22.816406 C 41.035156 22.726562 41.207031 22.5625 41.308594 22.355469 C 41.394531 22.195312 41.453125 22.140625 41.5 22.140625 C 41.5625 22.140625 41.558594 22.269531 41.550781 22.320312 C 41.492188 22.5625 41.414062 22.804688 41.316406 23.039062 C 41.300781 23.082031 41.199219 23.117188 41.167969 23.117188 C 41.101562 23.117188 39.570312 23.089844 39.105469 23.089844 C 38.691406 23.089844 38.621094 23.117188 38.398438 23.117188 C 38.28125 23.117188 38.1875 23.101562 38.1875 23.039062 C 38.1875 22.976562 38.269531 22.9375 38.375 22.914062 C 38.691406 22.839844 38.769531 22.777344 38.796875 22.441406 C 38.8125 22.183594 38.847656 21.710938 38.847656 20.941406 C 38.847656 20.210938 38.855469 19.925781 38.839844 19.746094 C 38.828125 19.523438 38.78125 19.402344 38.511719 19.347656 C 38.382812 19.324219 38.316406 19.296875 38.316406 19.238281 C 38.316406 19.179688 38.417969 19.144531 38.507812 19.144531 C 38.796875 19.144531 39.304688 19.164062 39.625 19.164062 Z M 40.554688 19.164062 "/>
<path style=" stroke:none;fill-rule:nonzero;fill:rgb(20%,20%,20%);fill-opacity:1;" d="M 42.175781 19.140625 C 42.558594 19.140625 42.691406 19.164062 43.179688 19.164062 C 43.210938 19.183594 43.234375 19.214844 43.246094 19.25 C 43.308594 19.441406 43.386719 19.628906 43.480469 19.808594 C 43.792969 20.449219 44.371094 21.667969 44.492188 21.824219 C 44.503906 21.835938 44.542969 21.847656 44.546875 21.84375 C 44.6875 21.585938 45.382812 20.21875 45.578125 19.734375 C 45.648438 19.578125 45.707031 19.417969 45.757812 19.257812 C 45.773438 19.21875 45.800781 19.1875 45.832031 19.164062 C 46.261719 19.164062 46.761719 19.140625 46.816406 19.140625 C 46.890625 19.140625 46.984375 19.15625 46.984375 19.214844 C 46.984375 19.269531 46.917969 19.308594 46.804688 19.332031 C 46.707031 19.355469 46.613281 19.390625 46.527344 19.4375 C 46.421875 19.488281 46.378906 19.617188 46.378906 19.933594 C 46.378906 20.976562 46.414062 22.199219 46.453125 22.507812 C 46.484375 22.710938 46.539062 22.816406 46.847656 22.898438 C 46.953125 22.921875 47.015625 22.984375 47.015625 23.027344 C 47.015625 23.097656 46.921875 23.121094 46.828125 23.121094 C 46.761719 23.121094 46.179688 23.089844 45.957031 23.089844 C 45.84375 23.089844 45.511719 23.109375 45.367188 23.109375 C 45.269531 23.109375 45.191406 23.082031 45.191406 23.023438 C 45.191406 22.960938 45.277344 22.910156 45.363281 22.894531 C 45.621094 22.832031 45.632812 22.632812 45.652344 22.390625 C 45.675781 22.085938 45.691406 20.488281 45.683594 20.175781 C 45.683594 20.113281 45.644531 20.082031 45.621094 20.132812 C 45.417969 20.535156 44.898438 21.640625 44.71875 22.046875 C 44.558594 22.40625 44.425781 22.738281 44.347656 22.9375 C 44.273438 23.117188 44.203125 23.128906 44.175781 23.128906 C 44.144531 23.128906 44.089844 23.058594 44.054688 22.992188 C 44.027344 22.894531 43.945312 22.648438 43.828125 22.359375 C 43.503906 21.566406 42.96875 20.40625 42.847656 20.175781 C 42.832031 20.140625 42.8125 20.152344 42.8125 20.195312 C 42.761719 20.609375 42.707031 21.691406 42.710938 22.359375 C 42.71875 22.714844 42.773438 22.789062 43.089844 22.894531 C 43.21875 22.9375 43.265625 22.972656 43.265625 23.027344 C 43.265625 23.085938 43.195312 23.117188 43.089844 23.117188 C 42.902344 23.117188 42.667969 23.089844 42.519531 23.089844 C 42.371094 23.089844 42.109375 23.117188 41.96875 23.117188 C 41.875 23.117188 41.777344 23.101562 41.777344 23.027344 C 41.777344 22.984375 41.835938 22.949219 41.941406 22.910156 C 42.285156 22.792969 42.351562 22.710938 42.40625 22.277344 C 42.464844 21.808594 42.605469 20.332031 42.613281 19.78125 C 42.632812 19.617188 42.53125 19.460938 42.375 19.410156 C 42.277344 19.378906 42.199219 19.351562 42.117188 19.335938 C 42.074219 19.320312 41.988281 19.277344 41.988281 19.222656 C 41.988281 19.167969 42.039062 19.140625 42.175781 19.140625 Z M 42.175781 19.140625 "/>
<path style=" stroke:none;fill-rule:nonzero;fill:rgb(20%,20%,20%);fill-opacity:1;" d="M 49.746094 19.164062 C 49.769531 19.171875 49.820312 19.257812 49.828125 19.289062 C 49.828125 19.367188 49.890625 19.847656 49.890625 19.871094 C 49.890625 19.964844 49.871094 20.023438 49.832031 20.023438 C 49.75 20.011719 49.683594 19.953125 49.65625 19.875 C 49.605469 19.707031 49.511719 19.558594 49.386719 19.433594 C 49.25 19.316406 49.074219 19.257812 48.894531 19.261719 C 48.542969 19.269531 48.261719 19.554688 48.261719 19.90625 C 48.261719 20.273438 48.53125 20.472656 49.089844 20.828125 C 49.851562 21.292969 50 21.6875 50 22.066406 C 49.988281 22.445312 49.78125 22.789062 49.457031 22.980469 C 49.1875 23.125 48.890625 23.203125 48.589844 23.203125 C 48.285156 23.207031 47.980469 23.152344 47.695312 23.042969 C 47.628906 22.996094 47.574219 22.933594 47.535156 22.863281 C 47.480469 22.644531 47.445312 22.421875 47.429688 22.199219 C 47.429688 22.15625 47.5 22.066406 47.53125 22.066406 C 47.582031 22.066406 47.679688 22.21875 47.769531 22.414062 C 47.929688 22.75 48.261719 22.96875 48.632812 22.984375 C 48.976562 22.984375 49.261719 22.710938 49.273438 22.363281 C 49.273438 22.105469 49.144531 21.851562 48.574219 21.484375 C 47.945312 21.066406 47.605469 20.726562 47.605469 20.175781 C 47.605469 19.859375 47.742188 19.5625 47.980469 19.359375 C 48.261719 19.144531 48.613281 19.039062 48.964844 19.0625 C 49.226562 19.074219 49.488281 19.109375 49.746094 19.164062 Z M 49.746094 19.164062 "/>
<path style=" stroke:none;fill-rule:nonzero;fill:rgb(20%,20%,20%);fill-opacity:1;" d="M 26.550781 14.320312 L 32.703125 8.15625 L 28.78125 4.230469 L 22.644531 10.375 L 20.5 8.230469 L 28.722656 0 L 36.925781 8.21875 L 28.691406 16.464844 Z M 26.550781 14.320312 "/>
<path style=" stroke:none;fill-rule:nonzero;fill:rgb(20%,20%,20%);fill-opacity:1;" d="M 24.765625 2.164062 L 18.613281 8.324219 L 22.535156 12.253906 L 28.671875 6.105469 L 30.816406 8.253906 L 22.59375 16.484375 L 14.390625 8.269531 L 22.625 0.015625 Z M 24.765625 2.164062 "/>
</g>
</svg>
